# xmcd
#
# Track frame offsets: 
#        150
#        11256
#        23126
#        37816
#        48460
#        63822
#        77234
#        86312
#        98070
#
# Disc length: 1477 seconds
#
# Revision: 0
# Processed by: cddbd v1.5.2PL0 Copyright (c) Steve Scherf et al.
# Submitted via: ExactAudioCopy v0.99pb3
#
DISCID=5705c309
DTITLE=Clover and Rachel Carroll - Live at the Sam Houston Folk Festiv
DTITLE=al
DYEAR=1900
DGENRE=Country
TTITLE0=Devil's Great-Grandson
TTITLE1=Oil Rag
TTITLE2=Strolling
TTITLE3=Walkin' Around
TTITLE4=Cowboy's Sweetheart
TTITLE5=Gift Horse
TTITLE6=Harmonic Extravaganza
TTITLE7=Old Home Place
TTITLE8=Cowboy Piper
EXTD=
EXTT0=
EXTT1=
EXTT2=
EXTT3=
EXTT4=
EXTT5=
EXTT6=
EXTT7=
EXTT8=
PLAYORDER=
